<svg id="Layer_1" xmlns="http://www.w3.org/2000/svg" viewBox="0 0 60 60"><style>.st0{fill:#ffbe22}</style><g id="Layer_2"><path class="st0" d="M57.6 54.4h-6.5V14.3h6.5c.7 0 1.2.6 1.2 1.2v37.6c.1.7-.5 1.3-1.2 1.3zM2.6 14.3H9v40.1H2.6c-.7 0-1.2-.6-1.2-1.2V15.6c-.1-.7.5-1.3 1.2-1.3z"/></g><path d="M57 13.5h-2v-3H45v3h-4V7.7c0-1.8-1.4-3.2-3.2-3.2H22.2c-1.8 0-3.2 1.4-3.2 3.2v5.8h-4v-3H5v3H3c-1.7 0-3 1.4-3 3v36c0 1.7 1.4 3 3 3h54c1.7 0 3-1.4 3-3v-36c0-1.6-1.4-3-3-3zm-10-1h6v1h-6v-1zM21 7.7c0-.7.5-1.2 1.2-1.2h15.6c.7 0 1.2.5 1.2 1.2v5.8H21V7.7zm-2 7.8h31v38H10v-38h9zm-12-3h6v1H7v-1zm-5 40v-36c0-.6.5-1 1-1h5v38H3c-.5 0-1-.5-1-1zm56 0c0 .6-.5 1-1 1h-5v-38h5c.6 0 1 .5 1 1v36z" id="Capa_1"/></svg>