<svg height="576" viewBox="0 -19 432.00217 432" width="576" xmlns="http://www.w3.org/2000/svg"><path d="M287.746 68.656c0 37.918-30.738 68.656-68.656 68.656-37.918 0-68.656-30.738-68.656-68.656S181.172 0 219.09 0c37.918 0 68.656 30.738 68.656 68.656zm-166.519 0c0 27.426-22.235 49.656-49.66 49.656-27.422 0-49.657-22.23-49.657-49.656S44.145 19 71.566 19c27.426 0 49.66 22.23 49.66 49.656zm307.437 105.61a6.563 6.563 0 0 0-6.691-.114L318 231.355v-26.62c0-25.92-21.477-46.735-47.39-46.735H46.804C21.035 157.922.082 178.746 0 204.516V347c-.063 25.895 20.879 46.938 46.773 47h223.832C296.523 394 318 372.918 318 347v-26.598l104.023 57.188c.997.562 2.125.86 3.27.86a6.477 6.477 0 0 0 3.418-.973 6.879 6.879 0 0 0 3.289-6.032V180.29a6.911 6.911 0 0 0-3.336-6.023zm0 0"/></svg>