<svg id="Layer_1" xmlns="http://www.w3.org/2000/svg" viewBox="0 0 480 480"><style>.st0{fill:#ffbe22;stroke:#000;stroke-miterlimit:10}</style><path class="st0" d="M23 195h275c6.6 0 12-5.4 12-12v-27c0-6.6-5.4-12-12-12H23c-6.6 0-12 5.4-12 12v27c0 6.6 5.4 12 12 12z"/><path d="M32 160h16v16H32v-16zM64 160h16v16H64v-16zM96 160h16v16H96v-16zM106.3 285.7l11.3-11.3L99.3 256l18.3-18.3-11.3-11.3-24 24c-3.1 3.1-3.1 8.2 0 11.3l24 24zM213.7 226.3l-11.3 11.3 18.3 18.3-18.3 18.3 11.3 11.3 24-24c3.1-3.1 3.1-8.2 0-11.3l-24-23.9zM136.6 293l32-80 14.9 5.9-32 80-14.9-5.9zM96 312h48v16H96v-16zM80 344h32v16H80v-16zM128 344h32v16h-32v-16zM48 376h96v16H48v-16zM64 312h16v16H64v-16zM176 344h32v16h-32v-16zM160 376h32v16h-32v-16zM208 376h32v16h-32v-16zM160 312h64v16h-64v-16z"/><path d="M456 256H320v-32h56c13.3 0 24-10.7 24-24V24c0-13.3-10.7-24-24-24H184c-13.3 0-24 10.7-24 24v112H24c-13.3 0-24 10.7-24 24v240c0 13.3 10.7 24 24 24h216v32c0 13.3 10.7 24 24 24h192c13.3 0 24-10.7 24-24V280c0-13.3-10.7-24-24-24zm0 16c4.4 0 8 3.6 8 8v24H320v-32h136zM184 16h192c4.4 0 8 3.6 8 8v24H176V24c0-4.4 3.6-8 8-8zm-8 48h208v136c0 4.4-3.6 8-8 8h-56v-48c0-13.3-10.7-24-24-24H176V64zM24 152h272c4.4 0 8 3.6 8 8v24H16v-24c0-4.4 3.6-8 8-8zm-8 248V200h288v200c0 4.4-3.6 8-8 8H24c-4.4 0-8-3.6-8-8zm440 64H264c-4.4 0-8-3.6-8-8v-32h40c13.3 0 24-10.7 24-24v-80h144v136c0 4.4-3.6 8-8 8z"/><path d="M192 24h16v16h-16V24zM216 24h16v16h-16V24zM240 24h16v16h-16V24z"/></svg>