<svg id="Layer_1" xmlns="http://www.w3.org/2000/svg" viewBox="0 0 480 480"><style>.st0{fill:#ffbe22}</style><path d="M472 144h-8V56c0-4.4-3.6-8-8-8H320V8c0-4.4-3.6-8-8-8H168c-4.4 0-8 3.6-8 8v40H24c-4.4 0-8 3.6-8 8v88H8c-4.4 0-8 3.6-8 8v32c0 4.4 3.6 8 8 8h8v280c0 4.4 3.6 8 8 8h432c4.4 0 8-3.6 8-8V192h8c4.4 0 8-3.6 8-8v-32c0-4.4-3.6-8-8-8zM320 64h128v80H320V64zM176 16h128v128H176V16zM32 64h128v80H32V64zm360 400H288v-64h104v64zm0-80H288v-80h104v80zm0-96H288v-40h104v40zm56 176h-40V240c0-4.4-3.6-8-8-8H280c-4.4 0-8 3.6-8 8v224H32V192h416v272zm16-288H16v-16h448v16z"/><path d="M80 408h144c4.4 0 8-3.6 8-8v-40c0-4.4-3.6-8-8-8h-8V240c0-4.4-3.6-8-8-8H96c-4.4 0-8 3.6-8 8v112h-8c-4.4 0-8 3.6-8 8v40c0 4.4 3.6 8 8 8zm24-160h96v104h-96V248zM88 368h128v24H88v-24z"/><path class="st0" d="M245.2 123H237c-6.6 0-12-5.4-12-12V55.5c0-6.6 5.4-12 12-12h8.2c6.6 0 12 5.4 12 12V111c0 6.6-5.3 12-12 12z"/><path class="st0" d="M211.8 93.5h51.5c6.6 0 12-5.4 12-12v-4.2c0-6.6-5.4-12-12-12h-51.5c-6.6 0-12 5.4-12 12v4.2c0 6.6 5.3 12 12 12z"/><path d="M368 352c4.4 0 8-3.6 8-8v-8c0-4.4-3.6-8-8-8s-8 3.6-8 8v8c0 4.4 3.6 8 8 8zM280 56h-16V40c0-4.4-3.6-8-8-8h-32c-4.4 0-8 3.6-8 8v16h-16c-4.4 0-8 3.6-8 8v32c0 4.4 3.6 8 8 8h16v16c0 4.4 3.6 8 8 8h32c4.4 0 8-3.6 8-8v-16h16c4.4 0 8-3.6 8-8V64c0-4.4-3.6-8-8-8zm-8 32h-16c-4.4 0-8 3.6-8 8v16h-16V96c0-4.4-3.6-8-8-8h-16V72h16c4.4 0 8-3.6 8-8V48h16v16c0 4.4 3.6 8 8 8h16v16zM133.7 301.7l24-24c3-3.1 3-8.1-.1-11.2s-8.1-3.1-11.2-.1l-24 24c-2.1 2-2.9 5-2.2 7.8.7 2.8 2.9 5 5.7 5.7 2.8.7 5.7-.2 7.8-2.2zM170.3 282.3l-40 40c-2.1 2-2.9 5-2.2 7.8.7 2.8 2.9 5 5.7 5.7 2.8.7 5.8-.1 7.8-2.2l40-40c3-3.1 3-8.1-.1-11.2s-8-3.1-11.2-.1z"/></svg>