<svg id="Layer_1" xmlns="http://www.w3.org/2000/svg" viewBox="0 0 40 40"><style>.st0{fill:#fff}.st1{fill:url(#SVGID_1_)}.st2{fill:url(#SVGID_2_)}.st3{fill:url(#SVGID_3_)}.st4{fill:none;stroke:#fff;stroke-width:1.5;stroke-miterlimit:10}.st5{fill:url(#SVGID_4_)}.st6{fill:url(#SVGID_5_)}</style><linearGradient id="SVGID_1_" gradientUnits="userSpaceOnUse" y1="20" x2="40" y2="20"><stop offset="0" stop-color="#ffebba"/><stop offset="1" stop-color="#ffbe22"/></linearGradient><circle class="st1" cx="20" cy="20" r="20"/><g><path class="st0" d="M21.1 26.1v-9.2l2.9 2.9c.1.1.3.2.5.2s.4-.1.5-.2l.5-.5c.1-.1.2-.3.2-.5s-.1-.4-.2-.5l-5-5c-.1-.1-.3-.2-.5-.2s-.4.1-.5.2l-5 5c-.1.1-.2.3-.2.5s.1.4.2.5l.5.5c.1.1.3.2.5.2s.4-.1.5-.2l2.9-2.9v9.2c0 .4.4.8.8.8h.6c.5 0 .8-.4.8-.8z"/></g></svg>