<svg id="Layer_1" xmlns="http://www.w3.org/2000/svg" viewBox="0 0 40 40"><style>.st0{fill:#fff}.st1{fill:url(#SVGID_1_)}.st2{fill:url(#SVGID_2_)}.st3{fill:url(#SVGID_3_)}.st4{fill:none;stroke:#fff;stroke-width:1.5;stroke-miterlimit:10}.st5{fill:url(#SVGID_4_)}.st6{fill:url(#SVGID_5_)}</style><linearGradient id="SVGID_1_" gradientUnits="userSpaceOnUse" y1="20" x2="40" y2="20" gradientTransform="rotate(180 20 20)"><stop offset="0" stop-color="#ffebba"/><stop offset="1" stop-color="#ffbe22"/></linearGradient><circle class="st1" cx="20" cy="20" r="20"/><path class="st0" d="M18.9 13.9v9.2L16 20.2c-.1-.2-.3-.2-.5-.2s-.4 0-.5.2l-.5.5c-.1.1-.2.3-.2.5s.1.4.2.5l5 5c.1.1.3.2.5.2s.4-.1.5-.2l5-5c.1-.1.2-.3.2-.5s-.1-.4-.2-.5l-.5-.5c-.1-.2-.3-.2-.5-.2s-.4.1-.5.2l-2.9 2.9v-9.2c0-.4-.4-.8-.8-.8h-.6c-.5 0-.8.4-.8.8z"/></svg>