<svg id="Layer_1" xmlns="http://www.w3.org/2000/svg" viewBox="0 0 512 512"><style>.st0{fill:#ffbe22;stroke:#000;stroke-miterlimit:10}</style><path class="st0" d="M168 248.5h175.5L307.2 145H205.5z"/><path d="M511.6 449.6l-34.1-102.4c-1.2-3.5-4.4-5.8-8.1-5.8h-36.5l-32.2-96.6c-1.2-3.5-4.4-5.8-8.1-5.8h-45l-32.2-96.6c-1.2-3.5-4.4-5.8-8.1-5.8H204.8c-3.7 0-6.9 2.3-8.1 5.8L164.5 239h-45.1c-3.7 0-6.9 2.3-8.1 5.8l-32.2 96.6H42.7c-3.7 0-6.9 2.3-8.1 5.8L.4 449.6c-.9 2.6-.4 5.5 1.2 7.7s4.2 3.5 6.9 3.5H503.5c2.7 0 5.3-1.3 6.9-3.5 1.6-2.3 2-5.1 1.2-7.7zm-96.8-108.3h-147l28.4-85.3h90.1l28.5 85.3zm-82 84l-22.3-66.9h44.6l-22.3 66.9zM256 322.9L233.7 256h44.6L256 322.9zm-45.1-169.3H301l28.4 85.3H182.3l28.6-85.3zM125.6 256h90.1l28.4 85.3H97.2l28.4-85.3zm53.6 169.3l-22.3-66.9h44.6l-22.3 66.9zM20.4 443.7l28.4-85.3h90.1l28.4 85.3H20.4zm170.6 0l28.4-85.3h73.1l28.4 85.3H191zm153.6 0l28.4-85.3h90.1l28.4 85.3H344.6zM298.7 102.4c4.7 0 8.5-3.8 8.5-8.5V59.7c0-4.7-3.8-8.5-8.5-8.5s-8.5 3.8-8.5 8.5v34.1c-.1 4.8 3.7 8.6 8.5 8.6zM332.8 128c1.8 0 3.6-.6 5.1-1.7l34.1-25.6c3.8-2.8 4.5-8.2 1.7-11.9-2.8-3.8-8.2-4.5-11.9-1.7l-34.1 25.6c-3.8 2.8-4.5 8.2-1.7 11.9 1.7 2.2 4.2 3.4 6.8 3.4zM349.9 162.1c0 4.7 3.8 8.5 8.5 8.5h42.7c4.7 0 8.5-3.8 8.5-8.5s-3.8-8.5-8.5-8.5h-42.7c-4.7 0-8.5 3.8-8.5 8.5z"/></svg>