<svg xmlns="http://www.w3.org/2000/svg" viewBox="0 0 512 512"><style>.st0{fill:#ffbe22;stroke:#000;stroke-miterlimit:10}</style><path class="st0" d="M104 154h94v64h-94z" id="Layer_2"/><g id="Layer_1"><g id="Online_store"><path d="M488 64c-4.4 0-8 3.6-8 8v272c0 13.3-10.7 24-24 24H56c-13.3 0-24-10.7-24-24V56c0-13.3 10.7-24 24-24h344c4.4 0 8-3.6 8-8s-3.6-8-8-8H56c-22.1 0-40 17.9-40 40v288c0 22.1 17.9 40 40 40h136v48h-56c-22.1 0-40 17.9-40 40v16c0 4.4 3.6 8 8 8h304c4.4 0 8-3.6 8-8v-16c0-22.1-17.9-40-40-40h-56v-48h136c22.1 0 40-17.9 40-40V72c0-4.4-3.6-8-8-8zm-88 408v8H112v-8c0-13.3 10.7-24 24-24h240c13.3 0 24 10.7 24 24zm-96-40h-96v-48h96v48z"/><path d="M464 312V72c0-4.4-3.6-8-8-8s-8 3.6-8 8v232H64V112h128c4.4 0 8-3.6 8-8s-3.6-8-8-8H64V64h336c4.4 0 8-3.6 8-8s-3.6-8-8-8H56c-4.4 0-8 3.6-8 8v256c0 4.4 3.6 8 8 8h400c4.4 0 8-3.6 8-8zm-184 32c0-13.3-10.7-24-24-24s-24 10.7-24 24 10.7 24 24 24 24-10.7 24-24zm-24 8c-4.4 0-8-3.6-8-8s3.6-8 8-8 8 3.6 8 8-3.6 8-8 8z"/><path d="M216 80c-4.4 0-8 3.6-8 8 0 .7.1 1.3.2 1.9l32 128c.9 3.6 4.1 6.1 7.8 6.1h14.2c-8.9 9.8-8.2 25 1.6 33.9 9.8 8.9 25 8.2 33.9-1.6 8.3-9.2 8.3-23.1 0-32.3h44.5c-8.9 9.8-8.2 25 1.6 33.9 9.8 8.9 25 8.2 33.9-1.6 8.3-9.2 8.3-23.1 0-32.3H392c.2 0 .3-.1.5-.1.3.1.6.1.8.1 3.7 0 6.9-2.5 7.8-6.1L446.7 32H488c4.4 0 8-3.6 8-8s-3.6-8-8-8h-47.6c-3.7 0-6.9 2.5-7.8 6.1L418.4 80H216zm192.6 40h-30.5l4.5-24h31.9l-5.9 24zm-11.7 48h-27.7l6-32h29.6l-7.9 32zm-9.8 40h-25.5l4.5-24h26.8l-5.8 24zm-150.9-72h28.6l6 32h-26.6l-8-32zm44.9 0H312v32h-24.9l-6-32zm30.9-16h-33.9l-4.5-24H312v24zm16-24h38.4l-4.5 24H328V96zm0 40h30.9l-6 32H328v-32zm-70.6-40l4.5 24h-29.6l-6-24h31.1zm-9.2 88h25.6l4.5 24h-24.1l-6-24zm31.8 64c-4.4 0-8-3.6-8-8s3.6-8 8-8 8 3.6 8 8-3.6 8-8 8zm14.6-40l-4.5-24H312v24h-17.4zm33.4-24h21.9l-4.5 24H328v-24zm32 64c-4.4 0-8-3.6-8-8s3.6-8 8-8 8 3.6 8 8-3.6 8-8 8zM80 72c-4.4 0-8 3.6-8 8s3.6 8 8 8h8c4.4 0 8-3.6 8-8s-3.6-8-8-8h-8zm32 0c-4.4 0-8 3.6-8 8s3.6 8 8 8h8c4.4 0 8-3.6 8-8s-3.6-8-8-8h-8zm32 0c-4.4 0-8 3.6-8 8s3.6 8 8 8h8c4.4 0 8-3.6 8-8s-3.6-8-8-8h-8zm-40 152h96c4.4 0 8-3.6 8-8v-64c0-4.4-3.6-8-8-8h-96c-4.4 0-8 3.6-8 8v64c0 4.4 3.6 8 8 8zm8-64h80v48h-80v-48zm-8 96h128c4.4 0 8-3.6 8-8s-3.6-8-8-8H104c-4.4 0-8 3.6-8 8s3.6 8 8 8zm0 32h160c4.4 0 8-3.6 8-8s-3.6-8-8-8H104c-4.4 0-8 3.6-8 8s3.6 8 8 8zm208-16c-4.4 0-8 3.6-8 8s3.6 8 8 8h112c4.4 0 8-3.6 8-8s-3.6-8-8-8H312z"/></g></g></svg>