<svg id="Layer_1" xmlns="http://www.w3.org/2000/svg" viewBox="0 0 512 512"><style>.st0{fill:#ffbe22}</style><path d="M313.9 228.8c0-32-26-58-58-58s-58 26-58 58 26 58 58 58 58-26.1 58-58zm-58 38c-21 0-38-17-38-38s17-38 38-38 38 17 38 38-17.1 38-38 38z"/><circle class="st0" cx="255.9" cy="228.8" r="41"/><path d="M350.1 175.1c-.4-.5-.8-1-1.2-1.4-11.4-62.9-40.3-121.6-84.3-169.4-1.9-2.6-4.9-4.2-8.2-4.2h-.1c-3.3 0-6.3 1.6-8.2 4.2-43.9 47.8-72.9 106.4-84.3 169.3-.5.5-.9 1-1.3 1.5L56 329.2c-1.2 1.7-1.8 3.7-1.8 5.7V350c0 5.5 4.5 10 10 10h53.2v65.2c0 5.5 4.5 10 10 10s10-4.5 10-10V360h25.2l20.1 35.2c1.8 3.1 5.1 5 8.7 5h21.4c-8.7 10.1-14 23.3-14 37.6v1.6c.6 28.5 16.2 53.3 29.2 69 1.8 2.2 4.4 3.5 7.2 3.6h.5c2.6 0 5.2-1.1 7.1-2.9l13.7-13.7L270 509c2 2 4.7 3 7.5 2.9 2.8-.1 5.4-1.4 7.2-3.6 13-15.8 28.7-40.5 29.2-68.9v-1.7c0-14.4-5.3-27.5-14-37.6h21.5c3.6 0 6.9-1.9 8.7-5.1l20-35.2h24.2V425c0 5.5 4.5 10 10 10s10-4.5 10-10v-65.2h54c5.5 0 10-4.5 10-10v-15.1c0-2-.6-4-1.8-5.7L350.1 175.1zm-171.7 59.4c0-43.3 8.7-85.5 25.1-124.5h105.7c9.6 22.8 16.5 46.6 20.7 71.1 0 .3.1.6.2.9 2.8 17.2 4.3 34.8 4.3 52.5v105.4h-156V234.5zm78-209.4C273.6 45 288.2 66.8 300 90h-87.2c11.7-23.2 26.3-45 43.6-64.9zM74.2 338l84.7-122.5c-.3 6.3-.5 12.7-.5 19v105.4H74.2V338zM294 437.8v1.2c-.4 18.2-8.9 35-17.9 47.8l-12.6-12.6c-3.9-3.9-10.2-3.9-14.1 0l-12.7 12.7c-9-12.8-17.5-29.7-17.9-48v-1.1c0-20.8 16.9-37.6 37.6-37.6S294 417 294 437.8zm21.6-57.7H197.2l-11.6-20.2h141.6l-11.6 20.2zm122.8-40.2h-84V234.5c0-6.3-.2-12.6-.5-18.9L438.4 338v1.9zM432.4 399.1c-5.5 0-10 4.5-10 10V502c0 5.5 4.5 10 10 10s10-4.5 10-10v-92.9c0-5.5-4.5-10-10-10zM79.4 399.1c-5.5 0-10 4.5-10 10V502c0 5.5 4.5 10 10 10s10-4.5 10-10v-92.9c0-5.5-4.5-10-10-10z"/></svg>