<svg xmlns="http://www.w3.org/2000/svg" viewBox="0 0 2318.4 511.6"><path d="M512 0v511.6H0V0h512zM5.1 506.5h501.5V5.2H5.1v501.3z"/><path d="M207 97.2h102.1c0 3.2.1 6.3-.1 9.4 0 .6-.8 1.6-1.4 1.8-13.1 3.7-14 12.9-8.3 24.5 7.1 14.4 14.6 28.6 21.9 42.9 18.5 36.2 37.1 72.3 55.6 108.5 18.1 35.3 36.1 70.6 54.2 105.9 3.2 6.2 9 9.4 15.2 11.7 3.1 1.2 4.4 2.7 3.9 6-.3 1.9 0 4 0 6.2H344.3v-10.3c2-.8 4.1-1.3 5.8-2.4 3.2-2.1 4.4-6.7 2.7-11.5-1.7-4.7-3.9-9.2-6.2-13.6-6.4-12.4-13-24.7-19.4-37.1-1.1-2.2-2.5-2.9-4.9-2.9-46.7 0-93.4-.1-140.1-.2-2.4 0-3.7.7-4.8 2.9-7.5 15.4-15.2 30.8-22.8 46.2-1.2 2.5-2.2 5.1-2.9 7.8-1.8 6.4 1.1 10.2 7.8 10.3h3.2v10.8H77.2v-10.8c7.7-1 11.9-6.4 15.1-12.4 5.2-9.5 9.8-19.3 14.5-29.1 26.4-55 52.7-110.1 79-165.1 10.1-21.1 20.2-42.1 30.3-63.2 1.5-3.2 2.9-6.5 3.8-9.9 1.7-6-.2-9.9-5.7-12.5-2.3-1.1-6.1-1.5-6.7-3.1-1.3-3.3-.5-7.1-.5-10.8zm96.4 193c-16.7-37.1-33.1-73.6-49.7-110.7-18.8 37.1-37.3 73.7-56 110.7h105.7z"/><g><path d="M798.2 294.9h-81.1l-18.6 62.8h-31l77.4-240.1h25.9l77.5 240.1h-31l-19.1-62.8zM725 269h65.5l-32.8-109.2L725 269zM931.5 331.9h94.2v25.9H901.1V117.6h30.3v214.3zM1193.2 251.7H1112v106h-30.2V117.6h125v25.9H1112v82.3h81.1v25.9zM1348.4 294.9h-81.1l-18.6 62.8h-31l77.4-240.1h25.9l77.5 240.1h-31l-19.1-62.8zm-73.3-25.9h65.5l-32.8-109.2-32.7 109.2zM1699.1 327.9l-5.3 6.6c-15.2 17.7-37.4 26.6-66.6 26.6-26 0-46.3-8.6-61.1-25.8-14.8-17.2-22.3-41.5-22.7-73v-47.2c0-33.6 6.7-58.9 20.2-75.6 13.5-16.8 33.6-25.2 60.4-25.2 22.9 0 40.8 6.3 53.7 19 12.9 12.7 20 30.9 21.4 54.5h-30.2c-1.2-15-5.4-26.6-12.5-35-7.1-8.4-17.8-12.6-32.2-12.6-17.3 0-29.9 5.6-37.9 16.9-8 11.3-12.2 29.3-12.5 54v49c0 24.2 4.6 42.7 13.9 55.7 9.2 12.9 22.5 19.4 39.7 19.4 16.3 0 28.6-3.9 37.1-11.8l4.5-4.1v-55.2h-43.9v-25.9h74.1v89.7zM1924.9 258.8c0 32.8-7 58-20.9 75.7-14 17.7-33.8 26.6-59.5 26.6-24.7 0-44.3-8.6-58.6-25.8-14.3-17.2-21.8-41.5-22.3-73v-45.2c0-32.1 7.1-57.3 21.3-75.5 14.2-18.2 34-27.3 59.4-27.3 25.3 0 45 8.7 59.1 26.1 14.1 17.4 21.4 42.3 21.7 74.6v43.8zm-30.2-42.1c0-25.4-4.2-44.3-12.5-56.7-8.3-12.4-21-18.6-38.2-18.6-16.6 0-29.2 6.3-37.7 18.8-8.5 12.5-12.8 31-12.9 55.4v43c0 24.5 4.3 43.2 12.8 56.1 8.5 12.9 21.2 19.3 38.2 19.3 16.9 0 29.5-5.9 37.6-17.8 8.1-11.9 12.4-30.1 12.7-54.6v-44.9zM2022.2 331.9h94.2v25.9h-124.5V117.6h30.3v214.3zM2172.6 357.8V117.6h57.2c28 0 49.8 8.8 65.3 26.3s23.3 42.2 23.3 74v40.2c0 31.8-7.9 56.3-23.6 73.6-15.7 17.3-38.5 26-68.4 26h-53.8zm30.2-214.3v188.3h24.2c21.2 0 36.7-6.1 46.5-18.2 9.8-12.2 14.8-30.2 15-54.1V217c0-25.3-4.9-43.9-14.6-55.7-9.7-11.8-24.4-17.7-44.1-17.7h-27z"/></g></svg>