<svg id="Layer_5" xmlns="http://www.w3.org/2000/svg" viewBox="0 0 512 512"><style>.st0{fill:#ffbe22;stroke:#000;stroke-miterlimit:10}</style><circle class="st0" cx="89.8" cy="280" r="33"/><path d="M136 280c0-26.5-21.5-48-48-48s-48 21.5-48 48 21.5 48 48 48 48-21.5 48-48zm-80 0c0-17.6 14.4-32 32-32s32 14.4 32 32-14.4 32-32 32-32-14.4-32-32z"/><path d="M472 328v-48h-32v-32h40v-24c0-36.8-27.8-67.2-63.5-71.4-3.6-2.8-7.4-5-11.4-6.3l-69.7-27.9c.3-2.1.6-4.2.6-6.3 0-17-10.7-31.5-25.8-37.3C288.9 33.5 247 8 200.4 8H194c-18.2 0-36.5 4.1-53 11.9l-23.7 11.2-32.6-13C80.6 16.7 76.3 16 72 16c-17.2 0-32.5 11-37.9 27.3-3.2 9.7-2.6 20 1.6 29.2C18.3 87 8 108.4 8 131.3 8 157 20.7 180.8 42.1 195l13.1 8.7-.3 3.6C27.3 219.9 8 247.7 8 280c0 28.3 14.8 53.1 37 67.3l-4.5 77.4C22 428.3 8 444.5 8 464v40h208v-40c0-19.5-14-35.7-32.5-39.2l-19.6-289 174.5 69.8c-1.6 5.9-2.5 12-2.5 18.4v24h40v32H264v48h-32v64h96v32h-80v80h256V328h-32zm-16 0h-32v-32h32v32zm-128 0v-32h32v32h-32zm48-32h32v32h-32v-32zm-56-184v.2l-41.4-16.6C283 90.9 289.2 88 296 88c13.2 0 24 10.8 24 24zM147.9 34.4C162.2 27.6 178.2 24 194 24h6.4c36.7 0 70.1 18.3 89.9 48.4-11.1 1.6-21 7.8-27.3 17L137.6 39.2l10.3-4.8zm-98.7 14C52.5 38.6 61.7 32 72 32c2.6 0 5.2.4 7.2 1.1l130.1 52-19.8 43.7-125-50c-6.1-2-11-6.3-13.9-12s-3.4-12.3-1.4-18.4zm1.7 133.3C34.1 170.4 24 151.6 24 131.3c0-17.8 7.8-34.4 21.1-45.8 4 3.7 8.7 6.6 13.9 8.3l4 1.6-6.4 90-5.7-3.7zM24 280c0-35.3 28.7-64 64-64h65.4l8.7 128H88c-35.3 0-64-28.7-64-64zm64 80h75.1l4.3 64h-111l4-69c8.7 3.2 17.9 5 27.6 5zm112 104v24H24v-24c0-13.2 10.8-24 24-24h128c13.2 0 24 10.8 24 24zm-47.7-264H88c-5.7 0-11.3.6-16.7 1.8l7.2-100.2 69 27.6 4.8 70.8zm52-65.3L224.1 91l161.5 64.6c-17.9 5.9-32.7 18.6-41.4 35.1l-139.9-56zM352 224c0-30.9 25.1-56 56-56s56 25.1 56 56v8H352v-8zm40 24h32v32h-32v-32zm-112 48h32v32h-32v-32zm-32 48h240v32H248v-32zm240 112h-72c-4.4 0-8-3.6-8-8v-16c0-4.4 3.6-8 8-8h72v32zm0-48h-72c-13.2 0-24 10.8-24 24v16c0 13.2 10.8 24 24 24h72v16H264v-48h80v-48h144v16z"/><path d="M312 456h16v16h-16v-16zM280 456h16v16h-16v-16zM344 456h16v16h-16v-16zM98.8 75.4l6-14.8 14.8 6-6 14.8-14.8-6zM128.4 87.1l5.9-14.9 14.9 5.9-5.9 14.9-14.9-5.9zM69 63.4l6-14.9 14.9 5.9L84 69.3l-15-5.9z"/></svg>