<svg id="Capa_1" xmlns="http://www.w3.org/2000/svg" viewBox="0 0 512 512"><style>.st0{fill:#ffbe22}</style><path d="M116 329H76c-5.5 0-10 4.5-10 10v40c0 5.5 4.5 10 10 10h40c5.5 0 10-4.5 10-10v-40c0-5.5-4.5-10-10-10zm-10 40H86v-20h20v20zM116 409H76c-5.5 0-10 4.5-10 10v40c0 5.5 4.5 10 10 10h40c5.5 0 10-4.5 10-10v-40c0-5.5-4.5-10-10-10zm-10 40H86v-20h20v20zM196 329h-40c-5.5 0-10 4.5-10 10v40c0 5.5 4.5 10 10 10h40c5.5 0 10-4.5 10-10v-40c0-5.5-4.5-10-10-10zm-10 40h-20v-20h20v20zM196 409h-40c-5.5 0-10 4.5-10 10v40c0 5.5 4.5 10 10 10h40c5.5 0 10-4.5 10-10v-40c0-5.5-4.5-10-10-10zm-10 40h-20v-20h20v20z"/><path class="st0" d="M75 159h200v97H75z"/><path d="M276 329h-40c-5.5 0-10 4.5-10 10v40c0 5.5 4.5 10 10 10h40c5.5 0 10-4.5 10-10v-40c0-5.5-4.5-10-10-10zm-10 40h-20v-20h20v20zM276 409h-40c-5.5 0-10 4.5-10 10v40c0 5.5 4.5 10 10 10h40c5.5 0 10-4.5 10-10v-40c0-5.5-4.5-10-10-10zm-10 40h-20v-20h20v20zM276 146H76c-5.5 0-10 4.5-10 10v100c0 5.5 4.5 10 10 10h200c5.5 0 10-4.5 10-10V156c0-5.5-4.5-10-10-10zm-10 100H86v-80h180v80zM216 43h-80c-5.5 0-10 4.5-10 10s4.5 10 10 10h80c5.5 0 10-4.5 10-10s-4.5-10-10-10z"/><path d="M456 146H326V93c0-27.6-22.4-50-50-50h-10V10c0-5.5-4.5-10-10-10H96c-5.5 0-10 4.5-10 10v33H76c-27.6 0-50 22.4-50 50v369c0 27.6 22.4 50 50 50h200c27.6 0 50-22.4 50-50v-93h130c16.5 0 30-13.5 30-30V176c0-16.5-13.5-30-30-30zM106 20h140v86H106V20zm200 442c0 16.5-13.5 30-30 30H76c-16.5 0-30-13.5-30-30V305.2h260V462zm0-176.8H46V93c0-16.5 13.5-30 30-30h10v43H76c-5.5 0-10 4.5-10 10s4.5 10 10 10h200c5.5 0 10-4.5 10-10s-4.5-10-10-10h-10V63h10c16.5 0 30 13.5 30 30v192.2zM466 339c0 5.5-4.5 10-10 10H326V246h140v93zm0-113H326v-20h140v20zm0-40H326v-20h130c5.5 0 10 4.5 10 10v10z"/><path d="M416 266c-7.7 0-14.7 2.9-20 7.7-5.3-4.8-12.3-7.7-20-7.7-16.5 0-30 13.5-30 30s13.5 30 30 30c7.7 0 14.7-2.9 20-7.7 5.3 4.8 12.3 7.7 20 7.7 16.5 0 30-13.5 30-30s-13.5-30-30-30zm-40 40c-5.5 0-10-4.5-10-10s4.5-10 10-10 10 4.5 10 10-4.5 10-10 10zm40 0c-5.5 0-10-4.5-10-10s4.5-10 10-10 10 4.5 10 10-4.5 10-10 10z"/></svg>