<svg id="Layer_1" xmlns="http://www.w3.org/2000/svg" viewBox="0 0 128 128"><style>.st0{fill:#ffbe22}</style><path class="st0" d="M113.2 127.8H14.4c-8 0-14.6-6.5-14.6-14.6V14.4C-.2 6.3 6.3-.2 14.4-.2h98.9c8 0 14.6 6.5 14.6 14.6v98.9c-.1 8-6.6 14.5-14.7 14.5z"/><path d="M51.3 25.9h24.4v2.2c0 .2-.2.4-.3.4-3.1.9-3.3 3.1-2 5.8 1.7 3.4 3.5 6.8 5.2 10.3 4.4 8.8 8.8 17.4 13.3 26 4.3 8.4 8.6 16.9 13 25.3.8 1.5 2.1 2.3 3.6 2.8.8.3 1 .6.9 1.4-.1.5 0 .9 0 1.5H84.1v-2.5c.5-.2 1-.3 1.4-.6.8-.5 1.1-1.6.6-2.7-.4-1.1-.9-2.2-1.5-3.2-1.5-3-3.1-5.9-4.6-8.9-.3-.5-.6-.7-1.2-.7-11.2 0-22.3 0-33.5-.1-.6 0-.9.2-1.1.7-1.8 3.7-3.6 7.4-5.4 11-.3.6-.5 1.2-.7 1.9-.4 1.5.3 2.4 1.9 2.5h.8v2.6H20.4V99c1.8-.2 2.8-1.5 3.6-3 1.2-2.3 2.3-4.6 3.5-7 6.1-13 12.4-26.2 18.7-39.3 2.4-5 4.8-10.1 7.2-15.1.4-.8.7-1.6.9-2.4.4-1.4 0-2.4-1.4-3-.5-.3-1.5-.4-1.6-.7-.2-.8 0-1.7 0-2.6zm23 46.2c-4-8.9-7.9-17.6-11.9-26.4-4.5 8.9-8.9 17.6-13.4 26.4h25.3z"/></svg>