<svg xmlns="http://www.w3.org/2000/svg" viewBox="0 0 512 512"><style>.st0{fill:#ffbe22}</style><path class="st0" d="M137.3 347.7v-68h22.8s5.6 26 9.6 32.7c4 6.7 20 23.3 30.7 24 10.7.7 31-4 34.3-8.3 3.3-4.3 19-35.7 19-35.7l2.3-10 27-2.7-4 78.3 8 20.7 9.7 29.3-9.7 23.3-8.3 21.3-22.7 3.8-18-92.4-6-16.5-48-2-46.7 2.2z" id="Layer_2"/><g id="Layer_1"><g id="Outline"><path d="M184 140c0-6.6-5.4-12-12-12s-12 5.4-12 12 5.4 12 12 12 12-5.4 12-12zM244 152c6.6 0 12-5.4 12-12s-5.4-12-12-12-12 5.4-12 12 5.4 12 12 12zM208 200c13.2 0 24-10.8 24-24h-16c0 4.4-3.6 8-8 8s-8-3.6-8-8h-16c0 13.2 10.8 24 24 24zM134.6 392c-12.4-.1-22.5 9.8-22.7 22.1 0 .9 0 1.7.1 2.6 1.2 13.1 12.2 23.2 25.4 23.3 12.4.1 22.5-9.8 22.7-22.1 0-.9 0-1.7-.1-2.6-1.3-13.1-12.2-23.2-25.4-23.3zm7.8 29.9c-1.3 1.4-3.1 2.1-5 2.1-4.9-.2-8.9-3.9-9.4-8.7-.2-1.9.4-3.8 1.6-5.2 1.3-1.4 3.1-2.1 5-2.1 4.9.2 8.9 3.9 9.4 8.7.2 1.9-.3 3.8-1.6 5.2z"/><path d="M496 440c0-30.9-25.1-56-56-56h-7.7c-4.4.1-8.1-3.4-8.3-7.8-.1-4.4 3.3-8.1 7.8-8.2h23.7c13.4 0 24.8-11 24.5-24.4-.2-13.1-10.9-23.6-24-23.6h-24c-2.8 0-5.6.2-8.3.6 1.2-10.2-.7-20.6-5.3-29.8l-2.4-4.7V256c0-4.4-3.5-7.9-7.8-8-16.2-.1-30.9 9.3-37.7 24h-21c-6.8-14.7-21.5-24.1-37.7-24-4.4.1-7.9 3.6-7.8 8v18.7c-5.1-1.8-10.5-2.7-16-2.7h-40v-34.7c19.9-11.4 33.9-30.8 38.4-53.3h1c17.6 0 32.4-13.9 32.6-31.5.2-11.6-6-22.4-16-28.2v-15c25-8.8 38.1-36.2 29.3-61.2S297.1 10 272.1 18.8c-5.1 1.8-9.9 4.5-14.2 7.9C245 19.6 230.6 16 216 16h-16c-48.6 0-88 39.4-88 88v20.3c-10 5.8-16.2 16.6-16 28.2.3 17.6 15.1 31.5 32.6 31.5h.9c4.5 22.5 18.5 41.9 38.4 53.3V272h-44.2c-24.5 0-45 18.4-47.7 42.7L73.7 336H38.2C26 336 16 346 16 358.2c0 1.8.2 3.6.7 5.4l28.4 120c1.7 7.2 8.2 12.3 15.6 12.3H440c3.1 0 6.2-.3 9.3-.8h.2c26.9-4.4 46.6-27.8 46.5-55.1zm-27.7-28.3c15.6 15.6 15.6 41 0 56.6-3.5 3.5-7.7 6.4-12.3 8.4v-18.8c.3-.3.7-.6 1-.9 9.4-9.4 9.3-24.6 0-34-2.7-2.7-5.9-4.7-9.5-5.8-3.4-6.4-7.7-12.2-12.9-17.2h5.4c10.6 0 20.8 4.2 28.3 11.7zm-49.9-73.3c4.3-1.6 8.9-2.4 13.6-2.4h24c4.4 0 8 3.6 8 8s-3.6 8-8 8h-24c-10.7 0-20.2 7.1-23.1 17.4l-4.5-13.5c5.9-4.8 10.7-10.7 14-17.5zM320 288v-22.7c7.6 2.5 13.5 8.4 16 16l.4 1.2c1.1 3.3 4.1 5.5 7.6 5.5h32c3.4 0 6.5-2.2 7.6-5.5l.4-1.2c2.5-7.6 8.4-13.5 16-16V288c0 1.2.3 2.5.8 3.6l3.2 6.4c9.2 18.4 1.8 40.8-16.7 50-5.2 2.6-10.9 3.9-16.7 3.9h-21.4c-20.6 0-37.3-16.7-37.3-37.3 0-5.8 1.3-11.5 3.9-16.7l3.2-6.4c.7-1 1-2.3 1-3.5zm-52.4 192c1.1-3.6 1.2-7.4.4-11.1l-1.1-4.9h50.9c-3.1 4.8-5.1 10.3-5.6 16h-44.6zm33.9-189c-12 24.1-4 53.4 18.5 68.2V448h-29.9c17.5-25.1 16.7-58.6-2.1-82.8V288c4.7 0 9.3 1 13.5 3zm-29.5-3v80c0 1.9.7 3.7 1.9 5.2 17 20.1 17 49.6 0 69.7-1.2 1.4-1.9 3.3-1.9 5.1h-8.7l-20.4-91.6c-1.6-7.4-6.4-13.7-13.1-17.3 3-1.5 5.9-3.2 8.5-5.2 8.8-6.6 15.1-15.9 18.1-26.4L262 288h10zm-88-16v-27.7c15.6 4.9 32.4 4.9 48 0V272c0 7.8 5.7 14.5 13.5 15.8l-4.4 15.3c-4.2 14.8-17.7 25-33.1 25-15.4 0-28.8-10.2-33.1-25l-4.4-15.3c7.8-1.3 13.5-8 13.5-15.8zm104-104v-32c8.8 0 16 7.2 16 16s-7.2 16-16 16zm0-136c17.7 0 32 14.3 32 32 0 11.8-6.5 22.6-16.8 28.2-3-21.9-14.1-41.9-31.1-55.9 4.8-2.9 10.3-4.3 15.9-4.3zm-160 72c0-39.7 32.3-72 72-72h16c39.7 0 72 32.3 72 72v16h-3.1l-29.8-59.6c-2-4-6.8-5.6-10.7-3.6-.5.3-1 .6-1.4.9-.6.5-63.2 50.3-108.8 60.5-2.2.5-4.2.9-6.2 1.2V104zm-16 48c0-8.8 7.2-16 16-16v32c-8.8 0-16-7.2-16-16zm32 16v-35.8c38.4-10.8 83.3-42.6 101.2-56l26.8 53.6V168c0 35.3-28.7 64-64 64s-64-28.7-64-64zm10 120l5.6 19.4c3.4 11.8 11 22 21.3 28.6H144v-48h10zm-62 28.5c1.8-16.2 15.5-28.5 31.8-28.5h4.2v48H89.8l2.2-19.5zM70.1 480c-4.6 0-8.6-3.1-9.7-7.6L32.2 359.8c-.1-.5-.2-1-.2-1.5 0-3.4 2.8-6.2 6.2-6.2h179.3c4.7 0 8.8 3.2 9.8 7.8l25 112.6c.7 3.4-1.4 6.7-4.7 7.5-.4.1-.9.1-1.4.1H70.1zm329.9 0v-64h-16v64h-23.7c.7-3.9 2.5-7.5 5.4-10.3 1.5-1.5 2.3-3.5 2.3-5.7v-48h-16v44.9c-4.5 5.4-7.2 12.1-7.8 19.1h-15.9c.7-3.9 2.6-7.5 5.4-10.3 1.5-1.5 2.3-3.5 2.3-5.7v-97.7c4.3 1.1 8.8 1.7 13.3 1.7h21.4c6.7 0 13.4-1.3 19.6-3.8l10.1 30.3c.7 2.2 2.4 4 4.6 4.9 10.3 4.1 19.2 11.2 25.4 20.4 1.6 2.4 3.1 5 4.3 7.6 3.5 7.4 5.2 15.4 5.2 23.6v29H400z"/><path d="M328 304h16v16h-16zM376 304h16v16h-16z"/></g></g></svg>