<svg id="Layer_1" xmlns="http://www.w3.org/2000/svg" viewBox="0 0 512 512"><style>.st0{fill:#ffbe22;stroke:#000;stroke-miterlimit:10}</style><path d="M170.7 298.7c-3.2 0-6.2 1.8-7.6 4.7L146 337.5c-1.3 2.6-1.2 5.8.4 8.3s4.3 4 7.3 4h204.8c3 0 5.7-1.5 7.3-4 1.6-2.5 1.7-5.7.4-8.3L349 303.4c-1.4-2.9-4.4-4.7-7.6-4.7H170.7zm-3.3 34.1l8.5-17.1H336l8.5 17.1H167.4zM8.5 119.5h76.8c2.3 0 4.4-.9 6-2.5l11-11 28.1 28.1c1.6 1.6 3.8 2.5 6 2.5h34.1c2.3 0 4.4-.9 6-2.5l28.1-28.1 11 11c8.7 8.7 20.2 13.1 31.6 13.1 11.5 0 22.9-4.4 31.6-13.1 3.3-3.3 3.3-8.7 0-12.1L176.7 2.5c-1.6-1.6-3.8-2.5-6-2.5H8.5C3.8 0 0 3.8 0 8.5v102.4c0 4.7 3.8 8.6 8.5 8.6zm158.6 0H140l-25.6-25.6L128 80.3l19.6 19.6c3.3 3.3 8.7 3.3 12.1 0l19.6-19.6 13.5 13.5-25.7 25.7zM260 110c-10.4 5.3-23.5 3.6-32.1-5.1l-68.3-68.3c-3.3-3.3-8.7-3.3-12.1 0-1.7 1.7-2.5 3.9-2.5 6 0 2.2.8 4.4 2.5 6l19.6 19.6-13.5 13.5L134 62.2c-3.3-3.3-8.7-3.3-12.1 0l-40.2 40.2h-22V17.1h107.4L260 110zM17.1 17.1h25.6v85.3H17.1V17.1z"/><path class="st0" d="M332.6 249.9c0 34.6-34.3 24.6-76.6 24.6s-76.6 10-76.6-24.6 34.3-62.7 76.6-62.7 76.6 28.1 76.6 62.7z"/><path d="M264.5 179.6v-17.5h8.5V145h-34.1v17.1h8.5v17.5c-43.1 4.3-76.8 40.7-76.8 84.9v8.5c0 4.7 3.8 8.5 8.5 8.5h153.6c4.7 0 8.5-3.8 8.5-8.5v-8.5c.1-44.1-33.6-80.6-76.7-84.9zm-76.8 84.9c0-37.6 30.6-68.3 68.3-68.3s68.3 30.6 68.3 68.3H187.7z"/><path d="M503.5 162.1H290.1v17.1h204.8v196.3H17.1V179.2h204.8v-17.1H8.5c-4.7 0-8.5 3.8-8.5 8.5V384c0 4.7 3.8 8.5 8.5 8.5h221.9v70.8l-88.2 32.1c-3.9 1.4-6.2 5.4-5.5 9.5s4.3 7.1 8.4 7.1H367c4.1 0 7.7-3 8.4-7.1.7-4.1-1.6-8.1-5.5-9.5l-88.2-32.1v-70.8h221.9c4.7 0 8.5-3.8 8.5-8.5V170.7c-.1-4.7-3.9-8.6-8.6-8.6zm-310 332.8l46.9-17.1h31.1l46.9 17.1H193.5zm71-34.1h-17.1v-68.3h17.1v68.3z"/></svg>