<svg id="Capa_1" xmlns="http://www.w3.org/2000/svg" viewBox="0 0 442 442"><style>.st0{fill:#ffbe22;stroke:#000;stroke-miterlimit:10}</style><path class="st0" d="M115.5 136c1.5 0 159 85.8 159 85.8l6 123.7L331 312l-2.5-120-159-93.5-54 37.5z"/><path d="M337.9 189.5v-.2c-.1-.4-.1-.8-.2-1.2-.1-.4-.2-.7-.4-1.1 0-.1-.1-.2-.1-.3-.1-.3-.2-.5-.4-.8-.1-.1-.1-.2-.2-.3 0-.1-.1-.1-.1-.2-.1-.2-.3-.5-.5-.7l-.1-.1c-.2-.3-.5-.6-.8-.9l-.2-.2c-.2-.2-.5-.5-.8-.7l-.2-.2c-.4-.3-.7-.5-1.1-.7L185.5 98.2l84.8-53.4 142.2 80.8-59.9 37.7c-4.7 2.9-6.1 9.1-3.1 13.8 2.9 4.7 9.1 6.1 13.8 3.1l74-46.6c3-1.9 4.7-5.2 4.7-8.7-.1-3.5-2-6.7-5.1-8.5L275 24.4c-3.2-1.8-7.1-1.7-10.3.2l-104 65.5h-.1l-51.9 32.7h-.1l-104 65.5c-3 1.9-4.7 5.2-4.7 8.7.1 3.5 2 6.7 5.1 8.5l161.9 92c1.5.9 3.2 1.3 4.9 1.3 1.9 0 3.7-.5 5.3-1.5l74-46.6c4.7-2.9 6.1-9.1 3.1-13.8-2.9-4.7-9.1-6.1-13.8-3.1l-69 43.4-141.9-80.8 84.8-53.4L266 229.2v114.2c0 3.6 2 7 5.2 8.8 1.5.8 3.2 1.2 4.8 1.2 1.9 0 3.7-.5 5.3-1.5l52-32.8c2.9-1.8 4.7-5 4.7-8.5v-120-.2c0-.3-.1-.6-.1-.9zM286 325.3V223.4c0-3.6-1.9-6.9-5.1-8.7l-147.4-83.8 32.8-20.7L308.5 191l-12.5 7.8c-4.7 2.9-6.1 9.1-3.1 13.8 1.9 3 5.1 4.7 8.5 4.7 1.8 0 3.7-.5 5.3-1.5l11.3-7.1v96.4l-32 20.2z"/><path d="M426.7 156.7l-74 46.6c-4.7 2.9-6.1 9.1-3.1 13.8 1.9 3 5.1 4.7 8.5 4.7 1.8 0 3.7-.5 5.3-1.5l74-46.6c4.7-2.9 6.1-9.1 3.1-13.8-3-4.8-9.2-6.2-13.8-3.2zM240.6 273.8l-69 43.4-156.7-89c-4.8-2.7-10.9-1.1-13.6 3.8-2.7 4.8-1 10.9 3.8 13.6l161.9 92c1.5.9 3.2 1.3 4.9 1.3 1.9 0 3.7-.5 5.3-1.5l74-46.6c4.7-2.9 6.1-9.1 3.1-13.8-2.8-4.7-9-6.1-13.7-3.2zM426.7 196.7l-74 46.6c-4.7 2.9-6.1 9.1-3.1 13.8 1.9 3 5.1 4.7 8.5 4.7 1.8 0 3.7-.5 5.3-1.5l74-46.6c4.7-2.9 6.1-9.1 3.1-13.8-3-4.8-9.2-6.2-13.8-3.2z"/><path d="M240.6 313.8l-69 43.4-156.7-89c-4.8-2.7-10.9-1.1-13.6 3.8-2.7 4.8-1 10.9 3.8 13.6l161.9 92c1.5.9 3.2 1.3 4.9 1.3 1.9 0 3.7-.5 5.3-1.5l74-46.6c4.7-2.9 6.1-9.1 3.1-13.8-2.8-4.7-9-6.1-13.7-3.2zM426.7 236.7l-74 46.6c-4.7 2.9-6.1 9.1-3.1 13.8 1.9 3 5.1 4.7 8.5 4.7 1.8 0 3.7-.5 5.3-1.5l74-46.6c4.7-2.9 6.1-9.1 3.1-13.8-3-4.8-9.2-6.2-13.8-3.2z"/><path d="M240.6 353.8l-69 43.4-156.7-89c-4.8-2.7-10.9-1.1-13.6 3.8-2.7 4.8-1 10.9 3.8 13.6l161.9 92c1.5.9 3.2 1.3 4.9 1.3 1.9 0 3.7-.5 5.3-1.5l74-46.6c4.7-2.9 6.1-9.1 3.1-13.8-2.8-4.7-9-6.1-13.7-3.2z"/></svg>