<svg id="Capa_1" xmlns="http://www.w3.org/2000/svg" viewBox="0 0 511 511"><style>.st0{fill:#ffbe22;stroke:#000;stroke-miterlimit:10}</style><path class="st0" d="M160 297h191.5v134H160z"/><path d="M223 112.6l65 13v9.9h15v-22.1l-95-19v41.1h15z"/><path d="M414 416l-23.9-174.9-87.1-15.9v-23.6c9.6-10.8 15.2-24.4 15.9-38.9l16.1-16.1V87.5c0-21.8-17.7-39.5-39.5-39.5h-80C193.7 48 176 65.7 176 87.5v59.1l16.2 16.2c1.2 14.5 7 27.6 15.8 37.9v24.5l-87.2 15.9L97 416H0v47h511v-47h-97zm-262 0h-34.3l34.3-19.6V416zm71-202.3c9 5.6 19.4 9 30.6 9.3h2c11.6 0 22.7-3.1 32.5-8.9v13.2l-32.5 19.5-32.6-19.5v-13.6zm32.5 54.3l15 20h-30l15-20zm33.3 20l36.2-43.5 25.2 4.6-19.3 38.9h-42.1zm-108.7 0l-19.5-38.9 25.2-4.6L222 288h-41.9zM167 303h177v113H167V303zm192 93.4l34.3 19.6H359v-19.6zm37.8 4.4L359 379.1V288h-11.4l18.1-36.1 11.1 2 20 146.9zm-88.7-159.4l-28.3 34-13.3-17.8 30.4-18.3 11.2 2.1zm-101.2-85.1L191 140.4V87.5C191 74 202 63 215.5 63h80C309 63 320 74 320 87.5v52.9l-16 16v3.1c0 13.2-5.2 25.6-14.7 34.8-9.5 9.2-22 14.1-35.3 13.7-25.3-.8-45.9-22.2-47-48.8l-.1-2.9zm7.2 83.1l30.4 18.3-13.3 17.8-28.3-34 11.2-2.1zm-79.9 14.5l11.1-2 18.1 36.1H152v91.1l-37.8 21.6 20-146.8zM496 448H15v-17h481v17z"/><path d="M223.5 352h64v15h-64z"/></svg>