<svg id="Layer_1" xmlns="http://www.w3.org/2000/svg" viewBox="0 0 309 309"><style>.st0{fill:#fff}.st1{fill:url(#SVGID_1_)}.st2{fill:none;stroke:#e5e5e5;stroke-miterlimit:10}.st3{font-family:&amp;apos;MuseoSansCyrl-500&amp;apos;}.st4{font-size:15.6623px}</style><circle class="st0" cx="154.5" cy="154.5" r="154.5"/><linearGradient id="SVGID_1_" gradientUnits="userSpaceOnUse" x1="107.173" y1="153.5" x2="202.173" y2="153.5"><stop offset="0" stop-color="#ffebba"/><stop offset="1" stop-color="#ffbe22"/></linearGradient><circle class="st1" cx="154.7" cy="153.5" r="47.5"/><path class="st0" d="M165.5 152.4l-16.2-9.4c-.8-.5-1.8.1-1.8 1.1v18.7c0 .9 1 1.5 1.8 1.1l16.2-9.4c.8-.4.8-1.6 0-2.1z"/><path class="st2" d="M213.5 81.4c20.8 17.1 34 43.1 34 72.1 0 51.6-41.9 93.5-93.5 93.5s-93.5-41.9-93.5-93.5c0-28.3 12.6-53.6 32.4-70.8"/><text transform="translate(104.06 67.635)"><tspan x="0" y="0" class="st3 st4">Про AlfaGold </tspan><tspan x="17.9" y="18.8" class="st3 st4">за 2 мин.</tspan></text></svg>