<svg xmlns="http://www.w3.org/2000/svg" viewBox="0 0 512 512"><style>.st0{fill:#ffbe22}</style><g id="Layer_2"><path class="st0" d="M18 454h174v48H18zM324 454h174v48H324z"/></g><g id="Layer_5"><path d="M376 360h80v-96h-80v96zm16-80h48v64h-48v-64zM56 360h80v-96H56v96zm16-80h48v64H72v-64z"/><path d="M504 59.1l-4.4-2.2C495.6 54.8 400.2 8 256 8S16.4 54.8 12.4 56.8L8 59.1v16.7l45.6 38-45.6 76v2.2c0 15.2 6.1 29 16 39.1V440H8v64h496v-64h-16V231.1c9.9-10.1 16-23.9 16-39.1v-2.2l-45.6-76 45.6-38V59.1zM443.5 120l38.4 64h-76.5l-25.6-64h63.7zM168 296v-16h176v16H168zM80.1 416.8c0-.4-.1-.8-.1-.8 0-13.2 10.8-24 24-24s24 10.8 24 23.5l-.6 12.2 10.5-2.8c2.3-.6 4.3-.9 6.1-.9 10.4 0 19.2 6.7 22.5 16h-125c3.3-9.3 12.1-16 22.5-16 1.8 0 3.7.3 6.1.9l10.5 2.8-.5-10.9zm304 0c0-.4-.1-.8-.1-.8 0-13.2 10.8-24 24-24s24 10.8 24 23.5l-.6 12.2 10.5-2.8c2.3-.6 4.3-.9 6.1-.9 10.4 0 19.2 6.7 22.5 16h-125c3.3-9.3 12.1-16 22.5-16 1.8 0 3.7.3 6.1.9l10.5 2.8-.5-10.9zm87.9-.6c-6.7-5.1-15-8.2-24-8.2h-.8c-3.7-18.2-19.9-32-39.2-32s-35.5 13.8-39.2 32h-.8c-9 0-17.3 3.1-24 8.2V312h16v-48H152v48h16v104.2c-6.7-5.1-15-8.2-24-8.2h-.8c-3.7-18.2-19.9-32-39.2-32s-35.5 13.8-39.2 32H64c-9 0-17.3 3.1-24 8.2V242.5c7.3 3.5 15.4 5.5 24 5.5 20.4 0 38.2-11 48-27.3 9.8 16.3 27.6 27.3 48 27.3s38.2-11 48-27.3c9.8 16.3 27.6 27.3 48 27.3s38.2-11 48-27.3c9.8 16.3 27.6 27.3 48 27.3s38.2-11 48-27.3c9.8 16.3 27.6 27.3 48 27.3 8.6 0 16.7-2 24-5.5v173.7zM24.9 200h78.2c-3.7 18.2-19.9 32-39.2 32-19.2 0-35.2-13.8-39-32zm96 0h78.3c-3.7 18.2-19.9 32-39.2 32-19.3 0-35.4-13.8-39.1-32zm96 0h78.3c-3.7 18.2-19.8 32-39.1 32s-35.5-13.8-39.2-32zm95.9 0h78.3c-3.7 18.2-19.8 32-39.1 32s-35.5-13.8-39.2-32zM448 232c-19.3 0-35.5-13.8-39.2-32H487c-3.7 18.2-19.7 32-39 32zm-85.4-112l25.6 64h-77.8l-12.7-64h64.9zm-81.2 0l12.8 64h-76.5l12.8-64h50.9zm-80 64h-77.6l25.6-64h64.8l-12.8 64zm-94.8 0H30.1l38.4-64h63.6l-25.5 64zM184 488H24v-32h160v32zm0-48V312h64v64h-32v16h32v96h-48v-48h-16zm128 48h-48v-96h32v-16h-32v-64h64v128h-16v48zm176 0H328v-32h160v32zm-42.9-384H66.9L24.7 68.8C46.2 59.3 134.1 24 256 24s209.8 35.3 231.3 44.8L445.1 104z"/><path d="M192 40c-13.2 0-24 10.8-24 24s10.8 24 24 24 24-10.8 24-24-10.8-24-24-24zm0 32c-4.4 0-8-3.6-8-8s3.6-8 8-8 8 3.6 8 8-3.6 8-8 8zM232 64c0 13.2 10.8 24 24 24s24-10.8 24-24-10.8-24-24-24-24 10.8-24 24zm32 0c0 4.4-3.6 8-8 8s-8-3.6-8-8 3.6-8 8-8 8 3.6 8 8zM320 88c13.2 0 24-10.8 24-24s-10.8-24-24-24-24 10.8-24 24 10.8 24 24 24zm0-32c4.4 0 8 3.6 8 8s-3.6 8-8 8-8-3.6-8-8 3.6-8 8-8z"/></g></svg>