<svg id="icons" xmlns="http://www.w3.org/2000/svg" viewBox="0 0 512 512"><style>.st0{fill:#ffbe22;stroke:#000;stroke-miterlimit:10}</style><path class="st0" d="M225.5 174l30.7-14.5 23.3 18L282 443l-51.5-3.5z"/><path d="M256.2 240c4.4 0 8-3.6 8-8s-3.6-8-8-8h-.1c-4.4 0-8 3.6-8 8s3.7 8 8.1 8zM256.2 296c-4.5 0-8 3.6-8 8s3.6 8 8 8 8-3.6 8-8-3.6-8-8-8zM256.2 368c-4.5 0-8 3.6-8 8s3.6 8 8 8 8-3.6 8-8-3.6-8-8-8z"/><path d="M79.9 512H432c13.2 0 24-10.8 24-24 0-.2-.1-.4-.1-.6v-30.2c0-.4.1-.8.1-1.2 0-.2-.1-.4-.1-.6v-30.2c0-.4.1-.8.1-1.2 0-.2-.1-.4-.1-.6V104c0-.2-.1-.3-.1-.4 0-.6-.2-1.1-.3-1.6-.1-.5-.2-1-.4-1.4-.2-.4-.5-.8-.8-1.2-.3-.4-.6-.8-1-1.2-.4-.3-.8-.5-1.2-.8-.5-.3-.9-.6-1.5-.8-.1 0-.2-.2-.4-.2L375.6 74C372.5 32.7 338 0 295.9 0h-80c-42.1 0-76.6 32.7-79.7 74L61.6 96.3c-.1 0-.2.2-.4.2-.5.2-1 .5-1.5.8-.4.3-.8.5-1.2.8-.4.4-.7.8-1 1.2-.3.4-.6.8-.8 1.2-.2.4-.3.9-.4 1.4-.2.5-.3 1.1-.3 1.6 0 .2-.1.3-.1.4v384c0 13.3 10.8 24.1 24 24.1zm136-464h8v16c0 4.4 3.6 8 8 8h48c4.4 0 8-3.6 8-8V48h8c25.2 0 48 15.1 58.2 37.8-12.6 16.2-43.5 48.7-98.2 65.8-54.5-17-85.5-49.6-98.2-65.8C168 63.1 190.8 48 215.9 48zm56 0v8h-32v-8h32zm168 376.6c-.3 4.1-3.7 7.4-7.9 7.4H288.3V184.8l44.8 22c.1.1.2 0 .4.1.1.1.2.2.4.2.9.3 1.8.5 2.8.5h.1c.8 0 1.5-.1 2.2-.3.2-.1.5-.2.7-.3.5-.2.9-.4 1.4-.7.2-.2.5-.4.7-.6.4-.3.7-.6 1-1 .2-.2.4-.5.5-.8.2-.3.4-.5.6-.8.1-.1 0-.2.1-.3.1-.1.2-.2.2-.4 1.2-3.2 26.7-71.9 31.2-111.9l64.7 19.4-.2 314.7zm-200 7.4V176.8l16-7.9 16.3 8v255h-32.3zm-60.1-243.5c-5.6-15.9-17.8-51.6-24-80.4 15.5 16.6 41.2 38.2 79.5 53.1l-55.5 27.3zm176.3-80.4c-6.2 28.9-18.4 64.5-24 80.4L284.2 165c-.5-.3-.9-.5-1.4-.7l-6.2-3.1c38.3-14.9 64.1-36.5 79.5-53.1zm-188.3 94.4c.1.2.2.3.2.4 0 .1 0 .2.1.3.2.3.4.5.6.8.2.3.3.6.5.8.3.4.7.7 1 1 .2.2.4.4.7.6.4.3.9.5 1.4.7.2.1.5.2.7.3.7.2 1.4.3 2.2.3h.1c.9 0 1.9-.2 2.8-.5.1-.1.2-.2.4-.2.1-.1.3 0 .4-.1l45.1-22.2V432H80c-4.4 0-8-3.6-8-8V110l64.7-19.4c4.3 39.9 29.9 108.7 31.1 111.9zM79.9 448H432c2.8 0 5.4-.6 7.9-1.4v10.1c-.3 4.1-3.7 7.4-7.9 7.4H79.9c-4.4 0-8-3.6-8-8v-9.5c2.6.8 5.2 1.4 8 1.4zm0 32H432c2.8 0 5.4-.6 7.9-1.4v9.4c0 .1.1.2.1.3-.2 4.3-3.6 7.7-7.9 7.7H79.9c-4.4 0-8-3.6-8-8v-9.5c2.6.9 5.2 1.5 8 1.5zm136-464h80c28.3 0 52.4 18.5 60.8 44.1-14.9-17.4-37-28.1-60.8-28.1h-80c-23.7 0-45.8 10.7-60.8 28.1 8.4-25.6 32.5-44.1 60.8-44.1z"/></svg>