<svg xmlns="http://www.w3.org/2000/svg" viewBox="0 0 512 512"><style>.st0{fill:#ffbe22;stroke:#000;stroke-miterlimit:10}</style><g id="Layer_2"><path class="st0" d="M59.7 163H94v52H59.7zM196.2 163h34.3v52h-34.3zM196.2 59.3h34.3v52h-34.3zM281.5 59.3h34.3v52h-34.3zM281.5 161.7h34.3v52h-34.3zM196.2 264.8h34.3v52h-34.3zM281.5 263.5h34.3v52h-34.3zM418.1 263.5h34.3v52h-34.3zM418.1 163h34.3v52h-34.3zM418.1 366.5h34.3v52h-34.3z"/></g><g id="Layer_1"><path d="M366.9 477.9H128c-4.7 0-8.5 3.8-8.5 8.5v17.1c0 4.7 3.8 8.5 8.5 8.5s8.5-3.8 8.5-8.5V495h230.4c4.7 0 8.5-3.8 8.5-8.5s-3.8-8.6-8.5-8.6zM187.7 213.3c0 4.7 3.8 8.5 8.5 8.5h34.1c4.7 0 8.5-3.8 8.5-8.5v-51.2c0-4.7-3.8-8.5-8.5-8.5h-34.1c-4.7 0-8.5 3.8-8.5 8.5v51.2zm17.1-42.6h17.1v34.1h-17.1v-34.1zM110.9 102.4H8.5c-4.7 0-8.5 3.8-8.5 8.5v170.7c0 4.7 3.8 8.5 8.5 8.5s8.5-3.8 8.5-8.5V119.5h93.9c4.7 0 8.5-3.8 8.5-8.5s-3.8-8.6-8.5-8.6zM409.6 418.1c0 4.7 3.8 8.5 8.5 8.5h34.1c4.7 0 8.5-3.8 8.5-8.5v-51.2c0-4.7-3.8-8.5-8.5-8.5h-34.1c-4.7 0-8.5 3.8-8.5 8.5v51.2zm17.1-42.6h17.1v34.1h-17.1v-34.1zM42.7 307.2C.5 307.2 0 417 0 418.1c0 20.6 14.7 37.8 34.1 41.8v43.5c0 4.7 3.8 8.5 8.5 8.5s8.5-3.8 8.5-8.5v-43.5c19.4-4 34.1-21.2 34.1-41.8.1-1.1-.4-110.9-42.5-110.9zm0 136.5c-14.1 0-25.6-11.5-25.6-25.6 0-42.5 11.4-93.9 25.6-93.9s25.6 51.4 25.6 93.9c0 14.1-11.5 25.6-25.6 25.6zM93.9 256H59.7c-4.7 0-8.5 3.8-8.5 8.5v17.1c0 4.7 3.8 8.5 8.5 8.5s8.5-3.8 8.5-8.5v-8.5h17.1v42.7c0 4.7 3.8 8.5 8.5 8.5s8.5-3.8 8.5-8.5v-51.2c.1-4.8-3.7-8.6-8.4-8.6zM418.1 221.9h34.1c4.7 0 8.5-3.8 8.5-8.5v-51.2c0-4.7-3.8-8.5-8.5-8.5h-34.1c-4.7 0-8.5 3.8-8.5 8.5v51.2c0 4.6 3.8 8.5 8.5 8.5zm8.6-51.2h17.1v34.1h-17.1v-34.1z"/><path d="M93.9 153.6H59.7c-4.7 0-8.5 3.8-8.5 8.5v51.2c0 4.7 3.8 8.5 8.5 8.5h34.1c4.7 0 8.5-3.8 8.5-8.5v-51.2c.1-4.7-3.7-8.5-8.4-8.5zm-8.6 51.2h-17v-34.1h17.1l-.1 34.1zM273.1 213.3c0 4.7 3.8 8.5 8.5 8.5h34.1c4.7 0 8.5-3.8 8.5-8.5v-51.2c0-4.7-3.8-8.5-8.5-8.5h-34.1c-4.7 0-8.5 3.8-8.5 8.5v51.2zm17-42.6h17.1v34.1h-17.1v-34.1zM503.5 102.4H401.1c-4.7 0-8.5 3.8-8.5 8.5s3.8 8.5 8.5 8.5H495v342.9c-2.7-1-5.5-1.6-8.5-1.6-1.5 0-2.9.1-4.4.4-5.9-10.6-17.1-17.5-29.7-17.5s-23.9 6.8-29.7 17.5c-1.4-.3-2.9-.4-4.4-.4-14.1 0-25.6 11.5-25.6 25.6S404 512 418.1 512h68.3c14.1 0 25.6-11.5 25.6-25.6V110.9c0-4.7-3.8-8.5-8.5-8.5zm-17.1 392.5h-68.3c-4.7 0-8.5-3.8-8.5-8.5s3.8-8.5 8.5-8.5c1.6 0 3.2.5 4.6 1.4 2.3 1.5 5.3 1.8 7.8.7 2.6-1 4.5-3.3 5.1-6 1.8-7.8 8.6-13.2 16.6-13.2s14.8 5.4 16.6 13.2c.6 2.7 2.5 4.9 5.1 6 2.6 1 5.5.8 7.8-.7 5.6-3.6 13.2.8 13.2 7.1 0 4.7-3.8 8.5-8.5 8.5zM281.6 119.5h34.1c4.7 0 8.5-3.8 8.5-8.5V59.7c0-4.7-3.8-8.5-8.5-8.5h-34.1c-4.7 0-8.5 3.8-8.5 8.5v51.2c0 4.7 3.8 8.6 8.5 8.6zm8.5-51.2h17.1v34.1h-17.1V68.3zM273.1 315.7c0 4.7 3.8 8.5 8.5 8.5h34.1c4.7 0 8.5-3.8 8.5-8.5v-51.2c0-4.7-3.8-8.5-8.5-8.5h-34.1c-4.7 0-8.5 3.8-8.5 8.5v51.2zm17-42.6h17.1v34.1h-17.1v-34.1zM196.3 119.5h34.1c4.7 0 8.5-3.8 8.5-8.5V59.7c0-4.7-3.8-8.5-8.5-8.5h-34.1c-4.7 0-8.5 3.8-8.5 8.5v51.2c-.1 4.7 3.8 8.6 8.5 8.6zm8.5-51.2h17.1v34.1h-17.1V68.3zM249.9 412.1c-1.5 1.6-2.5 3.8-2.5 6.1s.9 4.4 2.5 6.1c1.6 1.5 3.8 2.5 6.1 2.5 2.2 0 4.4-.9 6.1-2.5 1.5-1.6 2.5-3.8 2.5-6.1s-.9-4.4-2.5-6.1c-3.3-3.2-8.9-3.2-12.2 0zM187.7 315.7c0 4.7 3.8 8.5 8.5 8.5h34.1c4.7 0 8.5-3.8 8.5-8.5v-51.2c0-4.7-3.8-8.5-8.5-8.5h-34.1c-4.7 0-8.5 3.8-8.5 8.5v51.2zm17.1-42.6h17.1v34.1h-17.1v-34.1z"/><path d="M170.7 366.9c0 4.7 3.8 8.5 8.5 8.5h25.6v76.8c0 4.7 3.8 8.5 8.5 8.5s8.5-3.8 8.5-8.5v-76.8h68.3v76.8c0 4.7 3.8 8.5 8.5 8.5s8.5-3.8 8.5-8.5v-76.8h25.6c4.7 0 8.5-3.8 8.5-8.5s-3.8-8.5-8.5-8.5H179.2c-4.7 0-8.5 3.8-8.5 8.5zM409.6 315.7c0 4.7 3.8 8.5 8.5 8.5h34.1c4.7 0 8.5-3.8 8.5-8.5v-51.2c0-4.7-3.8-8.5-8.5-8.5h-34.1c-4.7 0-8.5 3.8-8.5 8.5v51.2zm17.1-42.6h17.1v34.1h-17.1v-34.1z"/><path d="M366.9 0H145.1c-4.7 0-8.5 3.8-8.5 8.5v443.7c0 4.7 3.8 8.5 8.5 8.5s8.5-3.8 8.5-8.5V17.1h204.8v435.2c0 4.7 3.8 8.5 8.5 8.5s8.5-3.8 8.5-8.5V8.5c.1-4.7-3.8-8.5-8.5-8.5z"/></g></svg>