<svg xmlns="http://www.w3.org/2000/svg" viewBox="0 0 512.002 512.002"><g fill="#7f40bd"><path d="M437.976 214.854c.615-72.186-60.866-138.361-137.051-147.512-1.515-.18-3.166-.453-4.913-.743-3.772-.625-7.672-1.267-11.607-1.267-15.614 0-19.788 10.968-20.887 17.51-1.069 6.36-.049 11.701 3.024 15.882 5.171 7.031 14.269 8.279 21.577 9.28 2.142.296 4.163.571 5.855.951 68.449 15.295 91.497 39.341 102.761 107.208.275 1.658.399 3.702.531 5.869.491 8.113 1.515 24.991 19.661 24.991h.002c1.511 0 3.134-.13 4.824-.388 16.898-2.568 16.368-17.996 16.114-25.409-.072-2.088-.14-4.063.037-5.376a7.57 7.57 0 0 0 .072-.996z"/><path d="M279.974 40.846c2.027.146 3.947.286 5.545.531 112.4 17.286 164.091 70.54 178.416 183.819.243 1.926.281 4.274.321 6.761.143 8.85.437 27.262 20.21 27.643l.614.006c6.201 0 11.134-1.87 14.662-5.562 6.155-6.438 5.726-16.002 5.379-23.689-.084-1.886-.165-3.662-.145-5.217C506.405 109.283 406.12 4.226 290.369.32c-.48-.016-.938.01-1.401.075-.227.033-.649.075-1.371.075-1.154 0-2.574-.1-4.08-.202C281.696.143 279.632 0 277.54 0c-18.434 0-21.938 13.102-22.386 20.912-1.034 18.051 16.428 19.321 24.82 19.934zM458.511 371.602c-2.39-1.825-4.861-3.714-7.174-5.578-12.272-9.876-25.328-18.979-37.955-27.783a2807.15 2807.15 0 0 1-7.852-5.484c-16.174-11.361-30.715-16.882-44.453-16.882-18.504 0-34.636 10.224-47.951 30.384-5.899 8.938-13.056 13.283-21.876 13.283-5.215 0-11.142-1.488-17.612-4.425-52.207-23.674-89.486-59.972-110.803-107.886-10.305-23.158-6.964-38.295 11.172-50.615 10.299-6.99 29.469-20.003 28.111-44.922-1.538-28.298-63.976-113.445-90.284-123.115-11.138-4.096-22.841-4.134-34.846-.095-30.244 10.167-51.947 28.022-62.769 51.631-10.458 22.813-9.986 49.599 1.366 77.463C48.401 238.14 94.538 308.38 152.72 366.342c56.95 56.74 126.946 103.217 208.042 138.137 7.31 3.145 14.977 4.861 20.575 6.112 1.908.429 3.555.795 4.756 1.124.66.18 1.34.277 2.023.283l.641.003h.003c38.142 0 83.941-34.854 98.007-74.59 12.323-34.793-10.177-51.991-28.256-65.809zM296.845 132.872c-6.53.165-20.121.502-24.889 14.344-2.231 6.468-1.964 12.084.795 16.692 4.048 6.761 11.805 8.833 18.86 9.97 25.586 4.106 38.726 18.254 41.354 44.522 1.221 12.248 9.469 20.801 20.059 20.801h.002c.782 0 1.582-.046 2.379-.143 12.736-1.515 18.911-10.873 18.353-27.81.204-17.677-9.047-37.745-24.781-53.73-15.79-16.034-34.821-25.064-52.132-24.646z"/></g></svg>