<svg id="Layer_1" xmlns="http://www.w3.org/2000/svg" viewBox="0 0 122 120"><style>.st0{fill:#fff}.st1{fill:url(#SVGID_1_)}.st2{fill:url(#SVGID_2_)}.st3{fill:url(#SVGID_3_)}.st4{fill:none;stroke:#fff;stroke-width:1.5;stroke-miterlimit:10}.st5{fill:url(#SVGID_4_)}.st6{fill:url(#SVGID_5_)}.st7{fill:url(#SVGID_6_)}.st8{fill:url(#SVGID_7_)}.st9{fill:url(#SVGID_8_)}</style><path class="st0" d="M230.6-18.9L215 8.1c-4 6.9 1 15.5 8.9 15.5h31.2c8 0 12.9-8.6 8.9-15.5l-15.6-27c-3.9-6.9-13.9-6.9-17.8 0z"/><linearGradient id="SVGID_1_" gradientUnits="userSpaceOnUse" x1="218.987" y1=".369" x2="260.013" y2=".369"><stop offset="0" stop-color="#ffebba"/><stop offset="1" stop-color="#ffbe22"/></linearGradient><path class="st1" d="M233.5-14.8L219.9 8.6c-2.7 4.6.7 10.4 6 10.4H253c5.4 0 8.7-5.8 6-10.4l-13.5-23.5c-2.7-4.6-9.3-4.6-12 .1z"/><path class="st0" d="M237.8-10.7h3.5L241 7.1h-3l-.2-17.8zm0 21.1h3.5v3.4h-3.5v-3.4z"/><linearGradient id="SVGID_2_" gradientUnits="userSpaceOnUse" x1="308" y1="39" x2="358" y2="39"><stop offset="0" stop-color="#ffebba"/><stop offset="1" stop-color="#ffbe22"/></linearGradient><circle class="st2" cx="333" cy="39" r="25"/><linearGradient id="SVGID_3_" gradientUnits="userSpaceOnUse" x1="276" y1="63" x2="294" y2="63"><stop offset="0" stop-color="#ffebba"/><stop offset="1" stop-color="#ffbe22"/></linearGradient><circle class="st3" cx="285" cy="63" r="9"/><path class="st4" d="M280.1 63h9.8M280.1 63h9.8"/><g><path class="st0" d="M265 54c-5 0-9 4-9 9s4 9 9 9 9-4 9-9-4-9-9-9zm4.9 9.8h-4.2V68h-1.5v-4.2H260v-1.5h4.2V58h1.5v4.2h4.2v1.6z"/></g><path class="st0" d="M337.8 37.9L331 34c-.8-.5-1.8.1-1.8 1.1v7.8c0 .9 1 1.5 1.8 1.1l6.8-3.9c.8-.5.8-1.7 0-2.2z"/><g><linearGradient id="SVGID_4_" gradientUnits="userSpaceOnUse" x1="265" y1="106" x2="305" y2="106"><stop offset="0" stop-color="#ffebba"/><stop offset="1" stop-color="#ffbe22"/></linearGradient><circle class="st5" cx="285" cy="106" r="20"/><g><path class="st0" d="M286.1 112.1v-9.2l2.9 2.9c.1.1.3.2.5.2s.4-.1.5-.2l.5-.5c.1-.1.2-.3.2-.5s-.1-.4-.2-.5l-5-5c-.1-.1-.3-.2-.5-.2s-.4.1-.5.2l-5 5c-.1.1-.2.3-.2.5s.1.4.2.5l.5.5c.1.1.3.2.5.2s.4-.1.5-.2l2.9-2.9v9.2c0 .4.4.8.8.8h.6c.5 0 .8-.4.8-.8z"/></g></g><g><linearGradient id="SVGID_5_" gradientUnits="userSpaceOnUse" x1="314" y1="106" x2="354" y2="106" gradientTransform="rotate(180 334 106)"><stop offset="0" stop-color="#ffebba"/><stop offset="1" stop-color="#ffbe22"/></linearGradient><circle class="st6" cx="334" cy="106" r="20"/><g><path class="st0" d="M332.9 99.9v9.2l-2.9-2.9c-.1-.1-.3-.2-.5-.2s-.4.1-.5.2l-.5.5c-.1.1-.2.3-.2.5s.1.4.2.5l5 5c.1.1.3.2.5.2s.4-.1.5-.2l5-5c.1-.1.2-.3.2-.5s-.1-.4-.2-.5l-.5-.5c-.1-.1-.3-.2-.5-.2s-.4.1-.5.2l-2.9 2.9v-9.2c0-.4-.4-.8-.8-.8h-.6c-.5 0-.8.4-.8.8z"/></g></g><g><linearGradient id="SVGID_6_" gradientUnits="userSpaceOnUse" x1="47" y1="106" x2="75" y2="106"><stop offset="0" stop-color="#ffebba"/><stop offset="1" stop-color="#ffbe22"/></linearGradient><circle class="st7" cx="61" cy="106" r="14"/><linearGradient id="SVGID_7_" gradientUnits="userSpaceOnUse" x1="14" y1="60.773" x2="108" y2="60.773"><stop offset="0" stop-color="#ffebba"/><stop offset="1" stop-color="#ffbe22"/></linearGradient><path class="st8" d="M61 16c-26 0-47 21-47 47 0 18.8 11.1 35 27 42.5.3-10.8 9.1-19.5 20-19.5s19.7 8.7 20 19.5C97 98 108 81.8 108 63c0-26-21-47-47-47z"/><path class="st0" d="M64.6 104.9l-5-2.9c-.8-.5-1.8.1-1.8 1.1v5.7c0 .9 1 1.5 1.8 1.1l5-2.9c.8-.4.8-1.6 0-2.1z"/><g><path class="st0" d="M43.5 47h4.3c2 0 3.4 1.5 3.4 3.6s-1.4 3.6-3.4 3.6H46v3.2h-2.5V47zm3.8 4.9c.9 0 1.3-.6 1.3-1.4s-.4-1.4-1.3-1.4H46v2.8h1.3zM53.5 47H56v8.2h4.2v2.2h-6.8V47zM64.7 47h2.7l3.5 10.3h-2.6l-.6-2.2h-3.2l-.6 2.2h-2.6L64.7 47zm2.4 6.1l-.6-2c-.2-.7-.4-1.8-.4-1.8s-.2 1.1-.4 1.8l-.6 2h2zM74.2 53.1L70.8 47h2.9l1.2 2.5c.3.7.6 1.5.6 1.5s.3-.8.6-1.5l1.2-2.5h2.9l-3.4 6.1v4.2h-2.5v-4.2zM36.5 62.3h2.7l1.8 5.9c.2.7.4 1.7.4 1.7s.2-1 .4-1.7l1.9-5.9h2.7l-3.6 10.3h-2.6l-3.7-10.3zM48.4 62.3h2.5v10.3h-2.5V62.3zM53.9 62.3h3.7c3.3 0 5.3 1.9 5.3 5.1 0 3.3-2.1 5.2-5.3 5.2h-3.7V62.3zm3.6 8.2c1.8 0 2.8-1 2.8-3s-1.1-3-2.8-3h-1v6h1zM65.5 62.3H72v2.2h-4v1.9h3.2v2.2H68v2h4.2v2.2h-6.7V62.3zM79.3 62.2c3.2 0 5.4 2.3 5.4 5.3s-2.2 5.4-5.4 5.4-5.4-2.4-5.4-5.4c0-3 2.2-5.3 5.4-5.3zm0 8.3c1.6 0 2.8-1.3 2.8-3.1 0-1.7-1.2-3-2.8-3-1.6 0-2.8 1.3-2.8 3 0 1.8 1.2 3.1 2.8 3.1z"/></g><g><linearGradient id="SVGID_8_" gradientUnits="userSpaceOnUse" y1="31" x2="122" y2="31"><stop offset="0" stop-color="#ffebba"/><stop offset="1" stop-color="#ffbe22"/></linearGradient><path class="st9" d="M121 62c-.6 0-1-.4-1-1 0-32.5-26.5-59-59-59S2 28.5 2 61c0 .6-.4 1-1 1s-1-.4-1-1C0 27.4 27.4 0 61 0s61 27.4 61 61c0 .6-.4 1-1 1z"/></g></g></svg>